<svg width="64" height="64" viewBox="0 0 64 64" fill="none" xmlns="http://www.w3.org/2000/svg">
<path d="M53.3334 39.9999V19.9999L36.6667 10.6252M27.3334 10.6252L10.6667 19.9999V39.9999M14.6667 46.2506L32.0001 55.9999L42.6667 49.9999L49.3334 46.2492M32.0001 22.6666L36.0001 24.9999L40.0001 27.3332V36.6666L36.0001 38.9999L32.0001 41.3332L28.0001 38.9999L24.0001 36.6666V27.3332L28.0001 24.9999L32.0001 22.6666ZM32.0001 22.6666V13.3332M40.0001 35.9999L49.3334 41.3332M24.0001 35.9999L14.6667 41.3332" stroke="#280D46" stroke-width="4" stroke-linecap="round" stroke-linejoin="round"/>
<path d="M32 13.3333C34.2091 13.3333 36 11.5424 36 9.33325C36 7.12411 34.2091 5.33325 32 5.33325C29.7909 5.33325 28 7.12411 28 9.33325C28 11.5424 29.7909 13.3333 32 13.3333Z" stroke="#280D46" stroke-width="4" stroke-linecap="round" stroke-linejoin="round"/>
<path d="M10.6667 48C12.8759 48 14.6667 46.2091 14.6667 44C14.6667 41.7909 12.8759 40 10.6667 40C8.45761 40 6.66675 41.7909 6.66675 44C6.66675 46.2091 8.45761 48 10.6667 48Z" stroke="#280D46" stroke-width="4" stroke-linecap="round" stroke-linejoin="round"/>
<path d="M53.3335 48C55.5426 48 57.3335 46.2091 57.3335 44C57.3335 41.7909 55.5426 40 53.3335 40C51.1244 40 49.3335 41.7909 49.3335 44C49.3335 46.2091 51.1244 48 53.3335 48Z" stroke="#280D46" stroke-width="4" stroke-linecap="round" stroke-linejoin="round"/>
</svg>
