<svg width="32" height="32" viewBox="0 0 32 32" fill="none" xmlns="http://www.w3.org/2000/svg">
<g clip-path="url(#clip0_87_143)">
<path d="M25.7778 28.4444H6.22224V19.5555H4.44446V28.4444C4.44446 28.9159 4.63176 29.3681 4.96516 29.7015C5.29855 30.0349 5.75074 30.2222 6.22224 30.2222H25.7778C26.2493 30.2222 26.7015 30.0349 27.0349 29.7015C27.3683 29.3681 27.5556 28.9159 27.5556 28.4444V19.5555H25.7778V28.4444Z" fill="#280D46"/>
<path d="M12.4445 21.3333C12.4445 21.5691 12.5381 21.7952 12.7048 21.9619C12.8715 22.1286 13.0976 22.2222 13.3333 22.2222H18.6667C18.9024 22.2222 19.1285 22.1286 19.2952 21.9619C19.4619 21.7952 19.5556 21.5691 19.5556 21.3333C19.5556 21.0976 19.4619 20.8715 19.2952 20.7048C19.1285 20.5381 18.9024 20.4445 18.6667 20.4445H13.3333C13.0976 20.4445 12.8715 20.5381 12.7048 20.7048C12.5381 20.8715 12.4445 21.0976 12.4445 21.3333Z" fill="#280D46"/>
<path d="M12.4444 16H5.33332V12.4444H8.88888C8.50416 11.9753 8.29095 11.3889 8.28443 10.7822C8.28443 10.7822 8.28443 10.7022 8.28443 10.6667H4.88888C4.53525 10.6667 4.19611 10.8071 3.94607 11.0572C3.69602 11.3072 3.55554 11.6464 3.55554 12V17.7778H14.2222L12.4444 16Z" fill="#280D46"/>
<path d="M27.1111 10.6667H23.6978V10.7822C23.6963 11.3868 23.4894 11.9729 23.1111 12.4444H26.6667V16H19.5555L17.7778 17.7778H28.4444V12C28.4444 11.6464 28.304 11.3072 28.0539 11.0572C27.8039 10.8071 27.4647 10.6667 27.1111 10.6667Z" fill="#280D46"/>
<path d="M16 17.0489L21.6711 11.4044C21.774 11.3294 21.8595 11.2332 21.922 11.1223C21.9845 11.0114 22.0224 10.8884 22.0332 10.7615C22.0439 10.6347 22.0274 10.507 21.9845 10.3871C21.9417 10.2672 21.8736 10.1579 21.7849 10.0667C21.6962 9.97537 21.5889 9.9042 21.4703 9.85796C21.3517 9.81173 21.2245 9.79151 21.0974 9.79868C20.9703 9.80584 20.8463 9.84022 20.7336 9.89949C20.6209 9.95876 20.5223 10.0415 20.4444 10.1422L16.8889 13.6533V2.66666C16.8889 2.43091 16.7952 2.20482 16.6285 2.03812C16.4618 1.87142 16.2357 1.77777 16 1.77777C15.7642 1.77777 15.5381 1.87142 15.3714 2.03812C15.2048 2.20482 15.1111 2.43091 15.1111 2.66666V13.6889L11.5555 10.1778C11.3882 10.0116 11.1616 9.91867 10.9257 9.9195C10.6899 9.92033 10.464 10.0148 10.2978 10.1822C10.1316 10.3496 10.0387 10.5761 10.0395 10.812C10.0403 11.0479 10.1348 11.2738 10.3022 11.44L16 17.0489Z" fill="#280D46"/>
</g>
<defs>
<clipPath id="clip0_87_143">
<rect width="32" height="32" fill="white"/>
</clipPath>
</defs>
</svg>
