<svg width="52" height="52" viewBox="0 0 52 52" fill="none" xmlns="http://www.w3.org/2000/svg">
<path d="M4.33325 4.33325H23.8333V23.8333H4.33325V4.33325ZM8.66659 8.66659V19.4999H19.4999V8.66659H8.66659ZM37.9166 8.66659C36.48 8.66659 35.1022 9.23727 34.0864 10.2531C33.0706 11.2689 32.4999 12.6467 32.4999 14.0833C32.4999 15.5198 33.0706 16.8976 34.0864 17.9134C35.1022 18.9292 36.48 19.4999 37.9166 19.4999C39.3532 19.4999 40.7309 18.9292 41.7467 17.9134C42.7626 16.8976 43.3333 15.5198 43.3333 14.0833C43.3333 12.6467 42.7626 11.2689 41.7467 10.2531C40.7309 9.23727 39.3532 8.66659 37.9166 8.66659ZM28.1666 14.0833C28.1666 12.8029 28.4188 11.535 28.9088 10.3521C29.3987 9.16916 30.1169 8.09433 31.0223 7.18896C31.9277 6.28359 33.0025 5.56541 34.1854 5.07543C35.3683 4.58544 36.6362 4.33325 37.9166 4.33325C39.197 4.33325 40.4648 4.58544 41.6478 5.07543C42.8307 5.56541 43.9055 6.28359 44.8109 7.18896C45.7162 8.09433 46.4344 9.16916 46.9244 10.3521C47.4144 11.535 47.6666 12.8029 47.6666 14.0833C47.6666 16.6691 46.6394 19.1491 44.8109 20.9775C42.9824 22.806 40.5024 23.8333 37.9166 23.8333C35.3307 23.8333 32.8508 22.806 31.0223 20.9775C29.1938 19.1491 28.1666 16.6691 28.1666 14.0833ZM4.33325 28.1666H23.8333V47.6666H4.33325V28.1666ZM8.66659 32.4999V43.3333H19.4999V32.4999H8.66659ZM28.1666 28.1666H47.6666V47.6666H28.1666V28.1666ZM32.4999 32.4999V43.3333H43.3333V32.4999H32.4999Z" fill="#280D46"/>
</svg>
