<svg width="52" height="52" viewBox="0 0 52 52" fill="none" xmlns="http://www.w3.org/2000/svg">
<path d="M5.85 36.5625C4.225 33.3125 3.25 29.7375 3.25 26C3.25 13.4875 13.4875 3.25 26 3.25V6.5C15.275 6.5 6.5 15.275 6.5 26C6.5 29.25 7.3125 32.175 8.775 34.9375L5.85 36.5625ZM45.5 26C45.5 36.725 36.725 45.5 26 45.5C21.2875 45.5 16.9 43.875 13.4875 40.95L22.75 31.6875L20.475 29.25L9.9125 39.8125C9.2625 40.4625 9.2625 41.4375 9.9125 42.0875C14.1375 46.3125 19.9875 48.75 26 48.75C38.5125 48.75 48.75 38.5125 48.75 26H45.5Z" fill="#040404"/>
<path d="M29.25 40.625C29.0875 40.625 28.7626 40.625 28.6 40.4625C28.1125 40.3 27.625 39.8125 27.625 39.1625L26.4875 31.0375L29.7375 30.55L30.3876 35.9125L33.9625 33.15V24.375C33.9625 23.8875 34.125 23.5625 34.4501 23.2375L39.65 18.0375C41.1125 16.575 42.0875 14.4625 42.0875 12.35V9.75H39.65C37.5375 9.75 35.425 10.5625 33.9625 12.1875L28.7626 17.3875C28.4375 17.7125 28.1125 17.875 27.625 17.875H18.6875L15.925 21.45L21.2875 22.1L20.8 25.35L12.675 24.2125C12.025 24.2125 11.5375 23.725 11.375 23.2375C11.2125 22.75 11.2125 22.1 11.5375 21.6125L16.4125 15.1125C16.9001 14.7875 17.3875 14.625 17.875 14.625H26.975L31.85 9.75C33.9625 7.6375 36.8875 6.5 39.8125 6.5H42.25C44.0375 6.5 45.5 7.9625 45.5 9.75V12.1875C45.5 15.275 44.3625 18.0375 42.25 20.15L37.375 25.025V34.125C37.375 34.6125 37.2125 35.1 36.725 35.425L30.225 40.3C29.9 40.4625 29.575 40.625 29.25 40.625Z" fill="#040404"/>
</svg>
