<svg width="48" height="48" viewBox="0 0 48 48" fill="none" xmlns="http://www.w3.org/2000/svg">
<path d="M6 40C4.9 40 3.958 39.608 3.174 38.824C2.39 38.04 1.99867 37.0987 2 36V14H6V36H40V40H6ZM14 32C12.9 32 11.958 31.608 11.174 30.824C10.39 30.04 9.99867 29.0987 10 28V12C10 10.9 10.392 9.958 11.176 9.174C11.96 8.39 12.9013 7.99867 14 8H42C43.1 8 44.042 8.392 44.826 9.176C45.61 9.96 46.0013 10.9013 46 12V28C46 29.1 45.608 30.042 44.824 30.826C44.04 31.61 43.0987 32.0013 42 32H14ZM18 28C18 26.9 17.608 25.958 16.824 25.174C16.04 24.39 15.0987 23.9987 14 24V28H18ZM38 28H42V24C40.9 24 39.958 24.392 39.174 25.176C38.39 25.96 37.9987 26.9013 38 28ZM28 26C29.6667 26 31.0833 25.4167 32.25 24.25C33.4167 23.0833 34 21.6667 34 20C34 18.3333 33.4167 16.9167 32.25 15.75C31.0833 14.5833 29.6667 14 28 14C26.3333 14 24.9167 14.5833 23.75 15.75C22.5833 16.9167 22 18.3333 22 20C22 21.6667 22.5833 23.0833 23.75 24.25C24.9167 25.4167 26.3333 26 28 26ZM14 16C15.1 16 16.042 15.608 16.826 14.824C17.61 14.04 18.0013 13.0987 18 12H14V16ZM42 16V12H38C38 13.1 38.392 14.042 39.176 14.826C39.96 15.61 40.9013 16.0013 42 16Z" fill="#020202"/>
</svg>
