<svg width="68" height="68" viewBox="0 0 68 68" fill="none" xmlns="http://www.w3.org/2000/svg">
<path d="M33.9999 33.7875L29.1833 37.4709C28.8999 37.707 28.6166 37.7192 28.3333 37.5077C28.0499 37.2961 27.9555 37.0241 28.0499 36.6917L29.8916 30.7417L24.9333 26.775C24.6971 26.5389 24.6263 26.2679 24.7208 25.9619C24.8152 25.6559 25.0277 25.5019 25.3583 25.5H31.4499L33.2916 19.6917C33.386 19.3611 33.6221 19.1959 33.9999 19.1959C34.3777 19.1959 34.6138 19.3611 34.7083 19.6917L36.5499 25.5H42.5707C42.9013 25.5 43.1261 25.654 43.2451 25.9619C43.3641 26.2697 43.3046 26.5408 43.0666 26.775L38.0374 30.7417L39.8791 36.6917C39.9735 37.0222 39.8791 37.2942 39.5958 37.5077C39.3124 37.7211 39.0291 37.7089 38.7458 37.4709L33.9999 33.7875ZM33.9999 59.5L20.7541 63.8917C19.8096 64.2222 18.9474 64.1042 18.1673 63.5375C17.3871 62.9708 16.998 62.2153 16.9999 61.2709V43.2792C15.2055 41.2959 13.8124 39.0292 12.8208 36.4792C11.8291 33.9292 11.3333 31.2139 11.3333 28.3334C11.3333 22.0056 13.5291 16.6459 17.9208 12.2542C22.3124 7.86252 27.6721 5.66669 33.9999 5.66669C40.3277 5.66669 45.6874 7.86252 50.0791 12.2542C54.4707 16.6459 56.6666 22.0056 56.6666 28.3334C56.6666 31.2139 56.1708 33.9292 55.1791 36.4792C54.1874 39.0292 52.7944 41.2959 50.9999 43.2792V61.2709C50.9999 62.2153 50.6099 62.9708 49.8298 63.5375C49.0496 64.1042 48.1883 64.2222 47.2458 63.8917L33.9999 59.5ZM33.9999 45.3334C38.7221 45.3334 42.736 43.6806 46.0416 40.375C49.3471 37.0695 50.9999 33.0556 50.9999 28.3334C50.9999 23.6111 49.3471 19.5972 46.0416 16.2917C42.736 12.9861 38.7221 11.3334 33.9999 11.3334C29.2777 11.3334 25.2638 12.9861 21.9583 16.2917C18.6527 19.5972 16.9999 23.6111 16.9999 28.3334C16.9999 33.0556 18.6527 37.0695 21.9583 40.375C25.2638 43.6806 29.2777 45.3334 33.9999 45.3334ZM22.6666 56.7375L33.9999 53.8334L45.3333 56.7375V47.9542C43.6805 48.8986 41.8974 49.6428 39.9839 50.1869C38.0705 50.7309 36.0758 51.0019 33.9999 51C31.9221 51 29.9265 50.728 28.0131 50.184C26.0996 49.64 24.3175 48.8967 22.6666 47.9542V56.7375Z" fill="#050505"/>
</svg>
