<svg width="44" height="44" viewBox="0 0 44 44" fill="none" xmlns="http://www.w3.org/2000/svg">
<g clip-path="url(#clip0_179_168)">
<path d="M20.1667 16.5V27.5C20.1672 27.9673 20.3461 28.4167 20.6669 28.7565C20.9877 29.0963 21.4261 29.3008 21.8926 29.3281C22.359 29.3555 22.8184 29.2038 23.1767 28.9038C23.535 28.6039 23.7653 28.1785 23.8205 27.7145L23.8333 27.5V16.5H34.8333C35.7584 16.4997 36.6494 16.8491 37.3277 17.4781C38.006 18.1071 38.4215 18.9692 38.4908 19.8917L38.5 20.1667V36.6667C38.5003 37.5917 38.1509 38.4827 37.5219 39.161C36.8929 39.8393 36.0308 40.2548 35.1083 40.3242L34.8333 40.3333H9.16667C8.24161 40.3336 7.35063 39.9842 6.67233 39.3553C5.99403 38.7263 5.57855 37.8641 5.50917 36.9417L5.5 36.6667V20.1667C5.49971 19.2416 5.84908 18.3506 6.47808 17.6723C7.10708 16.994 7.96922 16.5785 8.89167 16.5092L9.16667 16.5H20.1667ZM23.6207 4.5265L29.7788 10.6828C30.1228 11.0268 30.3161 11.4934 30.3161 11.9799C30.3161 12.4664 30.1228 12.933 29.7788 13.277C29.4348 13.621 28.9683 13.8143 28.4818 13.8143C27.9952 13.8143 27.5287 13.621 27.1847 13.277L23.8333 9.92383V16.5H20.1667V9.92383L16.8153 13.277C16.645 13.4473 16.4428 13.5825 16.2202 13.6746C15.9977 13.7668 15.7591 13.8143 15.5183 13.8143C15.2774 13.8143 15.0388 13.7668 14.8163 13.6746C14.5937 13.5825 14.3915 13.4473 14.2212 13.277C14.0508 13.1067 13.9157 12.9044 13.8235 12.6819C13.7313 12.4593 13.6839 12.2208 13.6839 11.9799C13.6839 11.739 13.7313 11.5005 13.8235 11.2779C13.9157 11.0554 14.0508 10.8532 14.2212 10.6828L20.3812 4.5265C20.8109 4.09716 21.3935 3.85599 22.0009 3.85599C22.6084 3.85599 23.191 4.09716 23.6207 4.5265Z" fill="#171717"/>
</g>
<defs>
<clipPath id="clip0_179_168">
<rect width="44" height="44" fill="white"/>
</clipPath>
</defs>
</svg>
