<svg width="62" height="62" viewBox="0 0 62 62" fill="none" xmlns="http://www.w3.org/2000/svg">
<path d="M31 48.4375C28.762 48.4394 26.5584 47.8867 24.5862 46.8288C22.614 45.7708 20.9348 44.2406 19.6986 42.375L22.9264 40.2302C23.8101 41.5627 25.0097 42.6557 26.4185 43.4119C27.8272 44.168 29.4012 44.5637 31 44.5637C32.5988 44.5637 34.1728 44.168 35.5815 43.4119C36.9903 42.6557 38.1899 41.5627 39.0736 40.2302L42.3014 42.375C41.0652 44.2406 39.386 45.7708 37.4138 46.8288C35.4416 47.8867 33.238 48.4394 31 48.4375ZM38.75 27.125C37.9836 27.125 37.2344 27.3522 36.5972 27.778C35.9599 28.2038 35.4633 28.809 35.17 29.5171C34.8767 30.2251 34.7999 31.0043 34.9495 31.7559C35.099 32.5076 35.468 33.1981 36.01 33.74C36.5519 34.2819 37.2423 34.651 37.994 34.8005C38.7457 34.95 39.5248 34.8733 40.2329 34.58C40.941 34.2867 41.5462 33.79 41.9719 33.1528C42.3977 32.5155 42.625 31.7664 42.625 31C42.6302 30.4896 42.5335 29.9834 42.3406 29.5109C42.1477 29.0385 41.8625 28.6092 41.5016 28.2484C41.1407 27.8875 40.7115 27.6023 40.239 27.4094C39.7665 27.2165 39.2603 27.1198 38.75 27.125ZM23.25 27.125C22.4836 27.125 21.7344 27.3522 21.0972 27.778C20.4599 28.2038 19.9633 28.809 19.67 29.5171C19.3767 30.2251 19.2999 31.0043 19.4495 31.7559C19.599 32.5076 19.968 33.1981 20.51 33.74C21.0519 34.2819 21.7424 34.651 22.494 34.8005C23.2457 34.95 24.0248 34.8733 24.7329 34.58C25.441 34.2867 26.0462 33.79 26.4719 33.1528C26.8977 32.5155 27.125 31.7664 27.125 31C27.1302 30.4896 27.0335 29.9834 26.8406 29.5109C26.6477 29.0385 26.3625 28.6092 26.0016 28.2484C25.6407 27.8875 25.2115 27.6023 24.739 27.4094C24.2665 27.2165 23.7603 27.1198 23.25 27.125Z" fill="#280D46"/>
<path d="M58.125 31V27.125H54.25V19.375C54.2474 17.3204 53.4301 15.3506 51.9772 13.8978C50.5244 12.4449 48.5546 11.6276 46.5 11.625H42.625V3.875H38.75V11.625H23.25V3.875H19.375V11.625H15.5C13.4454 11.6276 11.4756 12.4449 10.0228 13.8978C8.5699 15.3506 7.75256 17.3204 7.75 19.375V27.125H3.875V31H7.75V40.6875H3.875V44.5625H7.75V50.375C7.75256 52.4296 8.5699 54.3994 10.0228 55.8522C11.4756 57.3051 13.4454 58.1224 15.5 58.125H46.5C48.5546 58.1224 50.5244 57.3051 51.9772 55.8522C53.4301 54.3994 54.2474 52.4296 54.25 50.375V44.5625H58.125V40.6875H54.25V31H58.125ZM50.375 50.375C50.374 51.4024 49.9654 52.3874 49.2389 53.1139C48.5124 53.8404 47.5274 54.249 46.5 54.25H15.5C14.4726 54.249 13.4876 53.8404 12.7611 53.1139C12.0346 52.3874 11.626 51.4024 11.625 50.375V19.375C11.626 18.3476 12.0346 17.3626 12.7611 16.6361C13.4876 15.9096 14.4726 15.501 15.5 15.5H46.5C47.5274 15.501 48.5124 15.9096 49.2389 16.6361C49.9654 17.3626 50.374 18.3476 50.375 19.375V50.375Z" fill="#280D46"/>
</svg>
