<svg width="31" height="30" viewBox="0 0 31 30" fill="none" xmlns="http://www.w3.org/2000/svg">
<path d="M4.25 23.75C3.5625 23.75 2.97375 23.505 2.48375 23.015C1.99375 22.525 1.74917 21.9367 1.75 21.25V8.75C1.75 8.0625 1.995 7.47375 2.485 6.98375C2.975 6.49375 3.56334 6.24917 4.25 6.25H16.75C17.4375 6.25 18.0263 6.495 18.5163 6.985C19.0063 7.475 19.2508 8.06334 19.25 8.75V21.25C19.25 21.9375 19.005 22.5263 18.515 23.0163C18.025 23.5063 17.4367 23.7508 16.75 23.75H4.25ZM4.25 21.25H16.75V8.75H4.25V21.25ZM23 23.75C22.6458 23.75 22.3488 23.63 22.1088 23.39C21.8688 23.15 21.7492 22.8533 21.75 22.5V7.5C21.75 7.14584 21.87 6.84875 22.11 6.60875C22.35 6.36875 22.6467 6.24917 23 6.25C23.3542 6.25 23.6513 6.37 23.8913 6.61C24.1313 6.85 24.2508 7.14667 24.25 7.5V22.5C24.25 22.8542 24.13 23.1513 23.89 23.3913C23.65 23.6313 23.3533 23.7508 23 23.75ZM28 23.75C27.6458 23.75 27.3488 23.63 27.1088 23.39C26.8688 23.15 26.7492 22.8533 26.75 22.5V7.5C26.75 7.14584 26.87 6.84875 27.11 6.60875C27.35 6.36875 27.6467 6.24917 28 6.25C28.3542 6.25 28.6513 6.37 28.8913 6.61C29.1313 6.85 29.2508 7.14667 29.25 7.5V22.5C29.25 22.8542 29.13 23.1513 28.89 23.3913C28.65 23.6313 28.3533 23.7508 28 23.75Z" fill="#280D46"/>
</svg>
