<svg width="36" height="36" viewBox="0 0 36 36" fill="none" xmlns="http://www.w3.org/2000/svg">
<path d="M18 13.5C16.8066 13.5 15.662 13.9741 14.818 14.818C13.9741 15.6619 13.5 16.8065 13.5 18C13.5 19.1935 13.9741 20.3381 14.818 21.182C15.662 22.0259 16.8066 22.5 18 22.5C19.1935 22.5 20.3381 22.0259 21.182 21.182C22.0259 20.3381 22.5 19.1935 22.5 18C22.5 16.8065 22.0259 15.6619 21.182 14.818C20.3381 13.9741 19.1935 13.5 18 13.5ZM15.75 18C15.75 17.4033 15.9871 16.831 16.409 16.409C16.831 15.9871 17.4033 15.75 18 15.75C18.5968 15.75 19.1691 15.9871 19.591 16.409C20.013 16.831 20.25 17.4033 20.25 18C20.25 18.5967 20.013 19.169 19.591 19.591C19.1691 20.0129 18.5968 20.25 18 20.25C17.4033 20.25 16.831 20.0129 16.409 19.591C15.9871 19.169 15.75 18.5967 15.75 18ZM23.8905 9.8955C23.4755 9.97173 23.0473 9.88022 22.6997 9.64104C22.3521 9.40187 22.1136 9.03457 22.0365 8.61975L21.4515 5.43375C21.4228 5.2786 21.3487 5.13546 21.2386 5.02249C21.1284 4.90953 20.9872 4.83183 20.8328 4.79925C18.9643 4.40306 17.0335 4.40306 15.165 4.79925C15.0106 4.83183 14.8694 4.90953 14.7593 5.02249C14.6491 5.13546 14.575 5.2786 14.5463 5.43375L13.9635 8.61975C13.921 8.84666 13.8297 9.06166 13.6961 9.24993C13.5625 9.4382 13.3896 9.59527 13.1895 9.71032C12.9893 9.82537 12.7666 9.89567 12.5367 9.91637C12.3067 9.93707 12.075 9.90769 11.8575 9.83025L8.79978 8.74125C8.65141 8.68811 8.49063 8.68005 8.33769 8.71809C8.18475 8.75612 8.04648 8.83855 7.94028 8.955C6.65873 10.3656 5.69094 12.0321 5.10078 13.8442C5.05209 13.9941 5.0492 14.1551 5.09248 14.3066C5.13577 14.4581 5.22327 14.5932 5.34378 14.6947L7.82328 16.7895C7.99946 16.9382 8.14106 17.1235 8.23819 17.3326C8.33532 17.5417 8.38564 17.7695 8.38564 18C8.38564 18.2305 8.33532 18.4583 8.23819 18.6674C8.14106 18.8765 7.99946 19.0618 7.82328 19.2105L5.34378 21.3053C5.22327 21.4068 5.13577 21.5419 5.09248 21.6934C5.0492 21.8449 5.05209 22.0059 5.10078 22.1558C5.69135 23.9682 6.65995 25.6347 7.94253 27.045C8.04873 27.1614 8.187 27.2439 8.33994 27.2819C8.49288 27.3199 8.65366 27.3119 8.80203 27.2587L11.862 26.1697C12.0795 26.0915 12.3114 26.0615 12.5416 26.0819C12.7718 26.1022 12.9948 26.1724 13.1952 26.2876C13.3956 26.4027 13.5685 26.5601 13.7019 26.7488C13.8354 26.9375 13.9262 27.153 13.968 27.3802L14.5485 30.5662C14.607 30.8812 14.8523 31.1332 15.1673 31.1985C17.0365 31.5948 18.9681 31.5948 20.8373 31.1985C20.9911 31.166 21.1318 31.0885 21.2415 30.976C21.3512 30.8634 21.4251 30.7208 21.4538 30.5662L22.0388 27.3802C22.0813 27.1533 22.1726 26.9383 22.3062 26.7501C22.4398 26.5618 22.6127 26.4047 22.8128 26.2897C23.013 26.1746 23.2357 26.1043 23.4656 26.0836C23.6956 26.0629 23.9273 26.0923 24.1448 26.1697L27.2025 27.2587C27.5063 27.3667 27.846 27.2812 28.062 27.045C29.3436 25.6343 30.3114 23.9679 30.9015 22.1558C30.9502 22.0059 30.9531 21.8449 30.9098 21.6934C30.8665 21.5419 30.779 21.4068 30.6585 21.3053L28.179 19.2105C28.0025 19.062 27.8606 18.8767 27.7632 18.6676C27.6659 18.4585 27.6154 18.2307 27.6154 18C27.6154 17.7693 27.6659 17.5415 27.7632 17.3324C27.8606 17.1233 28.0025 16.938 28.179 16.7895L30.6585 14.6947C30.779 14.5932 30.8665 14.4581 30.9098 14.3066C30.9531 14.1551 30.9502 13.9941 30.9015 13.8442C30.3104 12.0315 29.341 10.365 28.0575 8.955C27.9513 8.83855 27.8131 8.75612 27.6601 8.71809C27.5072 8.68005 27.3464 8.68811 27.198 8.74125L24.138 9.83025C24.0567 9.85946 23.9732 9.88204 23.8883 9.89775L23.8905 9.8955ZM8.99553 11.2005L11.1038 11.9497C11.6284 12.1365 12.1872 12.2072 12.7418 12.1569C13.2964 12.1065 13.8334 11.9365 14.3158 11.6584C14.7982 11.3802 15.2145 11.0007 15.5359 10.546C15.8574 10.0913 16.0763 9.5723 16.1775 9.02475L16.5758 6.84225C17.5209 6.72425 18.4769 6.72425 19.422 6.84225L19.8225 9.02475C19.9231 9.57268 20.1416 10.0922 20.4628 10.5473C20.7841 11.0024 21.2004 11.3822 21.683 11.6605C22.1657 11.9387 22.703 12.1087 23.2578 12.1586C23.8127 12.2086 24.3717 12.1373 24.8963 11.9497L27 11.1982C27.5738 11.9497 28.0508 12.7687 28.4175 13.6372L26.721 15.0705C26.2948 15.4304 25.9522 15.879 25.7172 16.385C25.4822 16.8909 25.3604 17.4421 25.3604 18C25.3604 18.5579 25.4822 19.1091 25.7172 19.615C25.9522 20.121 26.2948 20.5696 26.721 20.9295L28.4198 22.3627C28.0517 23.2321 27.5754 24.0516 27.0023 24.8017L24.894 24.0502C24.3694 23.8635 23.8106 23.7928 23.256 23.8431C22.7015 23.8934 22.1644 24.0635 21.682 24.3416C21.1996 24.6197 20.7833 24.9993 20.4619 25.454C20.1404 25.9086 19.9215 26.4277 19.8203 26.9753L19.4198 29.1577C18.4747 29.2759 17.5186 29.2759 16.5735 29.1577L16.1753 26.9753C16.0747 26.4273 15.8563 25.9078 15.535 25.4527C15.2137 24.9976 14.7974 24.6178 14.3148 24.3395C13.8321 24.0613 13.2948 23.8913 12.74 23.8414C12.1851 23.7914 11.6261 23.8627 11.1015 24.0502L9.00003 24.8017C8.42681 24.0516 7.95054 23.2321 7.58253 22.3627L9.27903 20.9272C9.70491 20.5673 10.0472 20.1189 10.2819 19.6131C10.5167 19.1074 10.6383 18.5565 10.6383 17.9989C10.6383 17.4413 10.5167 16.8904 10.2819 16.3846C10.0472 15.8789 9.70491 15.4304 9.27903 15.0705L7.58028 13.6372C7.94984 12.7686 8.42599 11.9493 8.99778 11.1982L8.99553 11.2005Z" fill="#280D46"/>
</svg>
