<svg width="32" height="32" viewBox="0 0 32 32" fill="none" xmlns="http://www.w3.org/2000/svg">
<path d="M22.6667 21.3333L28 16M28 16L22.6667 10.6666M28 16H9.33333M17.3333 21.3333V22.6666C17.3333 23.7275 16.9119 24.7449 16.1618 25.4951C15.4116 26.2452 14.3942 26.6666 13.3333 26.6666H8C6.93913 26.6666 5.92172 26.2452 5.17157 25.4951C4.42143 24.7449 4 23.7275 4 22.6666V9.33331C4 8.27245 4.42143 7.25503 5.17157 6.50489C5.92172 5.75474 6.93913 5.33331 8 5.33331H13.3333C14.3942 5.33331 15.4116 5.75474 16.1618 6.50489C16.9119 7.25503 17.3333 8.27245 17.3333 9.33331V10.6666" stroke="#280D46" stroke-width="2" stroke-linecap="round" stroke-linejoin="round"/>
</svg>
