<svg width="129" height="23" viewBox="0 0 129 23" fill="none" xmlns="http://www.w3.org/2000/svg">
<path d="M109.665 19.79C108.705 18.85 107.955 17.655 107.415 16.205C106.885 14.755 106.62 13.19 106.62 11.51C106.62 9.79 106.9 8.185 107.46 6.695C108.03 5.195 108.84 3.96 109.89 2.99H111.315V3.125C110.195 4.175 109.35 5.44 108.78 6.92C108.22 8.39 107.94 9.92 107.94 11.51C107.94 13.06 108.205 14.54 108.735 15.95C109.275 17.36 110.06 18.595 111.09 19.655V19.79H109.665ZM119.657 7.34H114.392V10.76C114.622 10.44 114.962 10.18 115.412 9.98C115.862 9.77 116.347 9.665 116.867 9.665C117.697 9.665 118.372 9.84 118.892 10.19C119.412 10.53 119.782 10.975 120.002 11.525C120.232 12.065 120.347 12.64 120.347 13.25C120.347 13.97 120.212 14.615 119.942 15.185C119.672 15.755 119.257 16.205 118.697 16.535C118.147 16.865 117.462 17.03 116.642 17.03C115.592 17.03 114.742 16.76 114.092 16.22C113.442 15.68 113.047 14.96 112.907 14.06H114.242C114.372 14.63 114.647 15.075 115.067 15.395C115.487 15.715 116.017 15.875 116.657 15.875C117.447 15.875 118.042 15.64 118.442 15.17C118.842 14.69 119.042 14.06 119.042 13.28C119.042 12.5 118.842 11.9 118.442 11.48C118.042 11.05 117.452 10.835 116.672 10.835C116.142 10.835 115.677 10.965 115.277 11.225C114.887 11.475 114.602 11.82 114.422 12.26H113.132V6.14H119.657V7.34ZM121.95 19.79V19.655C122.98 18.595 123.76 17.36 124.29 15.95C124.83 14.54 125.1 13.06 125.1 11.51C125.1 9.92 124.815 8.39 124.245 6.92C123.685 5.44 122.845 4.175 121.725 3.125V2.99H123.15C124.2 3.96 125.005 5.195 125.565 6.695C126.135 8.185 126.42 9.79 126.42 11.51C126.42 13.19 126.15 14.755 125.61 16.205C125.08 17.655 124.335 18.85 123.375 19.79H121.95Z" fill="black" fill-opacity="0.5"/>
<path d="M20.1523 9.82948L16.2765 13.212L17.4375 18.2479C17.4989 18.5112 17.4814 18.7867 17.3871 19.0401C17.2928 19.2934 17.1259 19.5134 16.9073 19.6724C16.6886 19.8314 16.428 19.9224 16.1579 19.9341C15.8878 19.9458 15.6203 19.8776 15.3888 19.7381L10.9965 17.074L6.61367 19.7381C6.38213 19.8776 6.11459 19.9458 5.84451 19.9341C5.57442 19.9224 5.31378 19.8314 5.09515 19.6724C4.87653 19.5134 4.70963 19.2934 4.61532 19.0401C4.52101 18.7867 4.50348 18.5112 4.56492 18.2479L5.72422 13.2171L1.84758 9.82948C1.64254 9.65264 1.49427 9.4192 1.42138 9.15844C1.34848 8.89767 1.35419 8.62118 1.4378 8.36365C1.52141 8.10612 1.6792 7.87901 1.89137 7.71079C2.10354 7.54258 2.36066 7.44075 2.63047 7.41808L7.74031 6.9755L9.73492 2.218C9.83908 1.96836 10.0148 1.75513 10.2399 1.60514C10.465 1.45515 10.7294 1.37512 10.9999 1.37512C11.2704 1.37512 11.5349 1.45515 11.76 1.60514C11.9851 1.75513 12.1608 1.96836 12.2649 2.218L14.2655 6.9755L19.3737 7.41808C19.6435 7.44075 19.9006 7.54258 20.1128 7.71079C20.3249 7.87901 20.4827 8.10612 20.5663 8.36365C20.6499 8.62118 20.6557 8.89767 20.5828 9.15844C20.5099 9.4192 20.3616 9.65264 20.1566 9.82948H20.1523Z" fill="#FFD45F"/>
<path d="M40.1523 9.82948L36.2765 13.212L37.4375 18.2479C37.4989 18.5112 37.4814 18.7867 37.3871 19.0401C37.2928 19.2934 37.1259 19.5134 36.9073 19.6724C36.6886 19.8314 36.428 19.9224 36.1579 19.9341C35.8878 19.9458 35.6203 19.8776 35.3888 19.7381L30.9965 17.074L26.6137 19.7381C26.3821 19.8776 26.1146 19.9458 25.8445 19.9341C25.5744 19.9224 25.3138 19.8314 25.0952 19.6724C24.8765 19.5134 24.7096 19.2934 24.6153 19.0401C24.521 18.7867 24.5035 18.5112 24.5649 18.2479L25.7242 13.2171L21.8476 9.82948C21.6425 9.65264 21.4943 9.4192 21.4214 9.15844C21.3485 8.89767 21.3542 8.62118 21.4378 8.36365C21.5214 8.10612 21.6792 7.87901 21.8914 7.71079C22.1035 7.54258 22.3607 7.44075 22.6305 7.41808L27.7403 6.9755L29.7349 2.218C29.8391 1.96836 30.0148 1.75513 30.2399 1.60514C30.465 1.45515 30.7294 1.37512 30.9999 1.37512C31.2704 1.37512 31.5349 1.45515 31.76 1.60514C31.9851 1.75513 32.1608 1.96836 32.2649 2.218L34.2655 6.9755L39.3737 7.41808C39.6435 7.44075 39.9006 7.54258 40.1128 7.71079C40.3249 7.87901 40.4827 8.10612 40.5663 8.36365C40.6499 8.62118 40.6557 8.89767 40.5828 9.15844C40.5099 9.4192 40.3616 9.65264 40.1566 9.82948H40.1523Z" fill="#FFD45F"/>
<path d="M60.1523 9.82948L56.2765 13.212L57.4375 18.2479C57.4989 18.5112 57.4814 18.7867 57.3871 19.0401C57.2928 19.2934 57.1259 19.5134 56.9073 19.6724C56.6886 19.8314 56.428 19.9224 56.1579 19.9341C55.8878 19.9458 55.6203 19.8776 55.3888 19.7381L50.9965 17.074L46.6137 19.7381C46.3821 19.8776 46.1146 19.9458 45.8445 19.9341C45.5744 19.9224 45.3138 19.8314 45.0952 19.6724C44.8765 19.5134 44.7096 19.2934 44.6153 19.0401C44.521 18.7867 44.5035 18.5112 44.5649 18.2479L45.7242 13.2171L41.8476 9.82948C41.6425 9.65264 41.4943 9.4192 41.4214 9.15844C41.3485 8.89767 41.3542 8.62118 41.4378 8.36365C41.5214 8.10612 41.6792 7.87901 41.8914 7.71079C42.1035 7.54258 42.3607 7.44075 42.6305 7.41808L47.7403 6.9755L49.7349 2.218C49.8391 1.96836 50.0148 1.75513 50.2399 1.60514C50.465 1.45515 50.7294 1.37512 50.9999 1.37512C51.2704 1.37512 51.5349 1.45515 51.76 1.60514C51.9851 1.75513 52.1608 1.96836 52.2649 2.218L54.2655 6.9755L59.3737 7.41808C59.6435 7.44075 59.9006 7.54258 60.1128 7.71079C60.3249 7.87901 60.4827 8.10612 60.5663 8.36365C60.6499 8.62118 60.6557 8.89767 60.5828 9.15844C60.5099 9.4192 60.3616 9.65264 60.1566 9.82948H60.1523Z" fill="#FFD45F"/>
<path d="M80.1523 9.82948L76.2765 13.212L77.4375 18.2479C77.4989 18.5112 77.4814 18.7867 77.3871 19.0401C77.2928 19.2934 77.1259 19.5134 76.9073 19.6724C76.6886 19.8314 76.428 19.9224 76.1579 19.9341C75.8878 19.9458 75.6203 19.8776 75.3888 19.7381L70.9965 17.074L66.6137 19.7381C66.3821 19.8776 66.1146 19.9458 65.8445 19.9341C65.5744 19.9224 65.3138 19.8314 65.0952 19.6724C64.8765 19.5134 64.7096 19.2934 64.6153 19.0401C64.521 18.7867 64.5035 18.5112 64.5649 18.2479L65.7242 13.2171L61.8476 9.82948C61.6425 9.65264 61.4943 9.4192 61.4214 9.15844C61.3485 8.89767 61.3542 8.62118 61.4378 8.36365C61.5214 8.10612 61.6792 7.87901 61.8914 7.71079C62.1035 7.54258 62.3607 7.44075 62.6305 7.41808L67.7403 6.9755L69.7349 2.218C69.8391 1.96836 70.0148 1.75513 70.2399 1.60514C70.465 1.45515 70.7294 1.37512 70.9999 1.37512C71.2704 1.37512 71.5349 1.45515 71.76 1.60514C71.9851 1.75513 72.1608 1.96836 72.2649 2.218L74.2655 6.9755L79.3737 7.41808C79.6435 7.44075 79.9006 7.54258 80.1128 7.71079C80.3249 7.87901 80.4827 8.10612 80.5663 8.36365C80.6499 8.62118 80.6557 8.89767 80.5828 9.15844C80.5099 9.4192 80.3616 9.65264 80.1566 9.82948H80.1523Z" fill="#FFD45F"/>
<path d="M100.152 9.82948L96.2765 13.212L97.4375 18.2479C97.4989 18.5112 97.4814 18.7867 97.3871 19.0401C97.2928 19.2934 97.1259 19.5134 96.9073 19.6724C96.6886 19.8314 96.428 19.9224 96.1579 19.9341C95.8878 19.9458 95.6203 19.8776 95.3888 19.7381L90.9965 17.074L86.6137 19.7381C86.3821 19.8776 86.1146 19.9458 85.8445 19.9341C85.5744 19.9224 85.3138 19.8314 85.0952 19.6724C84.8765 19.5134 84.7096 19.2934 84.6153 19.0401C84.521 18.7867 84.5035 18.5112 84.5649 18.2479L85.7242 13.2171L81.8476 9.82948C81.6425 9.65264 81.4943 9.4192 81.4214 9.15844C81.3485 8.89767 81.3542 8.62118 81.4378 8.36365C81.5214 8.10612 81.6792 7.87901 81.8914 7.71079C82.1035 7.54258 82.3607 7.44075 82.6305 7.41808L87.7403 6.9755L89.7349 2.218C89.8391 1.96836 90.0148 1.75513 90.2399 1.60514C90.465 1.45515 90.7294 1.37512 90.9999 1.37512C91.2704 1.37512 91.5349 1.45515 91.76 1.60514C91.9851 1.75513 92.1608 1.96836 92.2649 2.218L94.2655 6.9755L99.3737 7.41808C99.6435 7.44075 99.9006 7.54258 100.113 7.71079C100.325 7.87901 100.483 8.10612 100.566 8.36365C100.65 8.62118 100.656 8.89767 100.583 9.15844C100.51 9.4192 100.362 9.65264 100.157 9.82948H100.152Z" fill="#FFD45F"/>
</svg>
