<svg width="26" height="26" viewBox="0 0 26 26" fill="none" xmlns="http://www.w3.org/2000/svg">
<path d="M16.614 4.18599C16.5247 4.0902 16.417 4.01337 16.2975 3.96008C16.1779 3.90679 16.0487 3.87813 15.9178 3.87582C15.7869 3.87351 15.6569 3.8976 15.5355 3.94663C15.4141 3.99567 15.3038 4.06866 15.2112 4.16124C15.1186 4.25383 15.0456 4.36411 14.9966 4.48552C14.9476 4.60692 14.9235 4.73696 14.9258 4.86787C14.9281 4.99879 14.9567 5.12789 15.01 5.24749C15.0633 5.36709 15.1402 5.47473 15.236 5.56399L17.472 7.79999H6.17495C5.91637 7.79999 5.66837 7.90272 5.48552 8.08556C5.30267 8.26841 5.19995 8.51641 5.19995 8.77499C5.19995 9.03358 5.30267 9.28157 5.48552 9.46442C5.66837 9.64727 5.91637 9.74999 6.17495 9.74999H17.472L15.236 11.986C15.1402 12.0753 15.0633 12.1829 15.01 12.3025C14.9567 12.4221 14.9281 12.5512 14.9258 12.6821C14.9235 12.813 14.9476 12.9431 14.9966 13.0645C15.0456 13.1859 15.1186 13.2962 15.2112 13.3887C15.3038 13.4813 15.4141 13.5543 15.5355 13.6034C15.6569 13.6524 15.7869 13.6765 15.9178 13.6742C16.0487 13.6719 16.1779 13.6432 16.2975 13.5899C16.417 13.5366 16.5247 13.4598 16.614 13.364L20.514 9.46399C20.6965 9.28118 20.7991 9.03337 20.7991 8.77499C20.7991 8.51662 20.6965 8.26881 20.514 8.08599L16.614 4.18599ZM10.764 14.014C10.8597 13.9247 10.9366 13.8171 10.9899 13.6975C11.0432 13.5779 11.0718 13.4488 11.0741 13.3179C11.0764 13.187 11.0523 13.0569 11.0033 12.9355C10.9543 12.8141 10.8813 12.7038 10.7887 12.6112C10.6961 12.5187 10.5858 12.4457 10.4644 12.3966C10.343 12.3476 10.213 12.3235 10.0821 12.3258C9.95116 12.3281 9.82205 12.3568 9.70245 12.4101C9.58285 12.4634 9.47521 12.5402 9.38595 12.636L5.48595 16.536C5.30337 16.7188 5.20081 16.9666 5.20081 17.225C5.20081 17.4834 5.30337 17.7312 5.48595 17.914L9.38595 21.814C9.57078 21.9862 9.81524 22.08 10.0678 22.0755C10.3204 22.0711 10.5614 21.9687 10.7401 21.7901C10.9187 21.6115 11.021 21.3705 11.0255 21.1179C11.0299 20.8653 10.9362 20.6208 10.764 20.436L8.52795 18.2H19.825C20.0835 18.2 20.3315 18.0973 20.5144 17.9144C20.6972 17.7316 20.8 17.4836 20.8 17.225C20.8 16.9664 20.6972 16.7184 20.5144 16.5356C20.3315 16.3527 20.0835 16.25 19.825 16.25H8.52795L10.764 14.014Z" fill="#FF3D00"/>
</svg>
