<svg width="21" height="24" viewBox="0 0 21 24" fill="none" xmlns="http://www.w3.org/2000/svg">
<path d="M3 22.5C1.34531 22.5 0 21.1547 0 19.5V4.5C0 2.84531 1.34531 1.5 3 1.5H18C19.6547 1.5 21 2.84531 21 4.5V19.5C21 21.1547 19.6547 22.5 18 22.5H3ZM16.9266 18.5625L12.0609 13.0031L17.7844 5.4375H13.3031L9.79688 10.0266L5.77969 5.4375H3.55313L8.75625 11.3859L3.26719 18.5625H7.86094L11.0344 14.3672L14.7 18.5625H16.9266ZM15.1547 6.76875L7.19062 17.3016H5.86406L13.9172 6.76875H15.15H15.1547Z" fill="#FF3D00"/>
</svg>
